<?xml version="1.0" encoding="UTF-8" standalone="no"?>
<!-- Created with Inkscape (http://www.inkscape.org/) -->

<svg
   xmlns:dc="http://purl.org/dc/elements/1.1/"
   xmlns:cc="http://creativecommons.org/ns#"
   xmlns:rdf="http://www.w3.org/1999/02/22-rdf-syntax-ns#"
   xmlns:svg="http://www.w3.org/2000/svg"
   xmlns="http://www.w3.org/2000/svg"
   xmlns:sodipodi="http://sodipodi.sourceforge.net/DTD/sodipodi-0.dtd"
   xmlns:inkscape="http://www.inkscape.org/namespaces/inkscape"
   width="744.09448819"
   height="1052.3622047"
   id="svg2"
   version="1.1"
   inkscape:version="0.48.5 r10040"
   sodipodi:docname="p1_Baloon.svg"
   inkscape:export-filename="C:\Users\Yggdrasil\Documents\Ludum Dare 34\Assets\Sprites\p1_Baloon.png"
   inkscape:export-xdpi="90"
   inkscape:export-ydpi="90">
  <defs
     id="defs4" />
  <sodipodi:namedview
     id="base"
     pagecolor="#ffffff"
     bordercolor="#666666"
     borderopacity="1.0"
     inkscape:pageopacity="0.0"
     inkscape:pageshadow="2"
     inkscape:zoom="0.35"
     inkscape:cx="1209.2857"
     inkscape:cy="494.28571"
     inkscape:document-units="px"
     inkscape:current-layer="layer1"
     showgrid="false"
     inkscape:window-width="1920"
     inkscape:window-height="1058"
     inkscape:window-x="1912"
     inkscape:window-y="-8"
     inkscape:window-maximized="1" />
  <metadata
     id="metadata7">
    <rdf:RDF>
      <cc:Work
         rdf:about="">
        <dc:format>image/svg+xml</dc:format>
        <dc:type
           rdf:resource="http://purl.org/dc/dcmitype/StillImage" />
        <dc:title></dc:title>
      </cc:Work>
    </rdf:RDF>
  </metadata>
  <g
     inkscape:label="Layer 1"
     inkscape:groupmode="layer"
     id="layer1">
    <path
       style="fill:#ff0000;stroke:#ff0000;stroke-width:3.11299992000000000;stroke-miterlimit:4;stroke-opacity:1"
       d="M 720,512.36218 C 661.29028,750.5462 566.40672,986.08712 378.57144,969.50504 225.48183,955.99031 123.0202,722.26226 37.142883,512.36218 -66.71398,258.51677 149.68647,62.76144 387.14287,63.790759 593.57264,64.685584 789.86733,228.91201 720,512.36218 z"
       id="path2997"
       inkscape:connector-curvature="0"
       sodipodi:nodetypes="sssss" />
    <path
       sodipodi:type="star"
       style="fill:#ff0000;stroke:#ff0000;stroke-width:3.11299992;stroke-miterlimit:4;stroke-opacity:1;stroke-dasharray:none"
       id="path3002"
       sodipodi:sides="4"
       sodipodi:cx="374.28571"
       sodipodi:cy="949.50507"
       sodipodi:r1="31.558174"
       sodipodi:r2="22.314999"
       sodipodi:arg1="0.090659887"
       sodipodi:arg2="0.87605805"
       inkscape:flatsided="true"
       inkscape:rounded="0"
       inkscape:randomized="0"
       d="m 405.71428,952.36221 -34.28572,28.57143 -28.57143,-34.28572 34.28572,-28.57143 z"
       transform="translate(28.571429,34.285714)" />
    <path
       style="fill:#ff0000;stroke:#ff0000;stroke-width:8.8942852;stroke-miterlimit:4;stroke-opacity:1;stroke-dasharray:none"
       d="m 391.16923,1002.2091 c -16.63723,-20.52749 -16.6392,-20.53195 -11.5966,-26.10395 6.18406,-6.83334 5.75391,-8.84554 -1.85834,-8.693 -9.29446,0.18629 -26.8462,-4.21674 -45.86763,-11.50631 C 279.43713,935.82095 218.03888,872.47213 167.27549,786.10633 129.93091,722.57053 62.254789,575.97858 30.317529,489.44435 15.638884,449.67247 8.4264999,387.28395 14.040848,348.6479 30.528299,235.18683 113.30877,138.67076 232.67687,93.734017 252.98795,86.087807 300.14714,72.518889 307,72.349331 c 2.35714,-0.05832 10.71429,-1.360196 18.57143,-2.893054 17.59537,-3.432695 97.62823,-4.743272 106.3858,-1.742119 3.5122,1.203599 12.5122,2.792899 20,3.531777 7.48783,0.738878 14.25706,1.616706 15.04277,1.950729 0.78571,0.334023 2.71429,0.857179 4.28571,1.162568 1.57143,0.305389 4.78572,1.239274 7.14286,2.075302 2.35714,0.836027 15.21429,5.0462 28.57143,9.35594 82.66063,26.670806 154.34366,87.438076 190.7058,161.665446 32.29331,65.92157 42.69037,139.81755 30.51837,216.90626 -3.33554,21.12486 -10.42974,52.43043 -18.12891,80 -3.29132,11.78572 -6.14077,22.07143 -6.33209,22.85715 -0.19143,0.78571 -0.7528,2.71428 -1.24771,4.28571 -0.49495,1.57143 -3.65297,12.96494 -7.01786,25.31891 -3.36491,12.35398 -12.49223,41.16215 -20.28291,64.01815 -42.60815,125.00185 -97.64098,218.77888 -153.70803,261.92148 -27.31317,21.017 -76.25969,44.40166 -88.04577,42.06469 -1.94649,-0.38594 -6.25543,0.752 -9.5754,2.5288 l -6.03632,3.23054 7.40752,7.73177 7.40748,7.73175 -12.1178,9.88462 c -6.6648,5.43655 -14.0988,11.41925 -16.52,13.29495 -3.63991,2.8198 -5.86626,1.6039 -12.85714,-7.0216 l 0,0 z"
       id="path3772"
       inkscape:connector-curvature="0" />
    <path
       style="fill:#ff0000;stroke:#ff0000;stroke-width:8.8942852;stroke-miterlimit:4;stroke-opacity:1;stroke-dasharray:none"
       d="m 385.7284,999.81455 c -13.55903,-16.64514 -14.91254,-19.65614 -10.15697,-22.59522 5.95677,-3.68149 2.36617,-6.45278 -12.14286,-9.37215 -39.04203,-7.85565 -70.69997,-26.0392 -107.4619,-61.72345 C 209.30037,860.82547 175.35215,811.0763 130.30011,721.96664 89.345377,640.96113 38.314537,523.75761 23.736225,477.21933 15.532822,451.03164 9.8813691,411.68507 9.8686323,380.6703 9.8294954,285.36955 64.522657,190.76583 153.75963,131.77955 c 41.01362,-27.1103 73.89706,-41.51937 128.95466,-56.506144 28.05745,-7.637285 37.22782,-8.722742 85.49428,-10.119571 65.1002,-1.883996 90.1306,1.22825 135.54312,16.853229 56.34265,19.385706 92.69622,40.943156 131.17988,77.788946 70.3474,67.35338 103.3588,152.05729 99.76803,255.99474 -1.56454,45.28672 -6.3504,72.21429 -25.07229,141.06892 -51.23414,188.42697 -117.26068,316.79377 -190.94354,371.22648 -20.94911,15.476 -61.82877,35.67506 -78.50637,38.79078 -17.2298,3.21885 -18.37883,4.6216 -10.58311,12.91974 l 6.42634,6.84051 -17.5158,14.57682 c -9.63369,8.0172 -18.02126,14.5768 -18.63903,14.5768 -0.6178,0 -6.97963,-7.1893 -14.1374,-15.97625 z"
       id="path3774"
       inkscape:connector-curvature="0" />
    <path
       style="fill:#ff2a2a;stroke:#ff0000;stroke-width:8.52319241;stroke-miterlimit:4;stroke-opacity:1;stroke-dasharray:none"
       d="m 389.67938,989.68668 c -12.65706,-16.3744 -13.92054,-19.33642 -9.48131,-22.2277 5.56052,-3.62161 2.20876,-6.34782 -11.33511,-9.2197 C 332.41804,950.5114 302.86601,932.62361 268.54952,897.51979 224.9875,852.95832 193.29754,804.01834 151.2424,716.3581 113.01201,636.67019 65.375792,521.37304 51.767237,475.59172 44.109531,449.82999 38.834013,411.12341 38.822128,380.61311 38.78563,286.86247 89.840527,193.79752 173.14137,135.77068 c 38.28536,-26.66933 68.98137,-40.844037 120.37649,-55.58704 26.19105,-7.513057 34.75139,-8.580864 79.80712,-9.954971 60.76969,-1.853349 84.13505,1.20827 126.5267,16.579098 52.59468,19.070393 86.52998,40.277203 122.45367,76.523673 65.66783,66.25785 96.48328,149.58401 93.13138,251.83086 -1.46047,44.55012 -5.92797,71.0397 -23.40446,138.77437 -47.826,185.36212 -109.46041,311.64097 -178.24181,365.18831 -19.55556,15.22428 -57.71588,35.09479 -73.28406,38.15983 -16.08367,3.16649 -17.15625,4.54643 -9.87912,12.70959 l 5.99886,6.72925 -16.35064,14.33971 c -8.99285,7.8868 -16.82247,14.33974 -17.39915,14.33974 -0.5767,0 -6.51533,-7.07239 -13.19697,-15.71642 z"
       id="path3774-7"
       inkscape:connector-curvature="0" />
  </g>
</svg>
